<?xml version="1.0" standalone="yes"?>
<svg xmlns="http://www.w3.org/2000/svg" width="512" height="512">
<path style="fill:#010101; stroke:none;" d="M0 0L0 512L512 512L512 0L508 0L508 312L507.946 468L503 485C498.509 486.49 497.015 491.358 493.7 494.522C487.446 500.491 479.467 505.429 471 507.405C460.203 509.925 447.067 508 436 508L365 508L140 508L53 508C43.3468 508 27.3551 507.902 22 498C16.9452 496.627 13.4104 493.033 12 488C0.986329 482.065 1 465.666 1 455L1 367L1 108L1 33C1 23.4152 3.70742 8.83521 0 0z"/>
<path style="fill:#8da23c; stroke:none;" d="M1 0L1 393L1 451L1 472L16 495L25 503L38 506L37 508L399 508L449 508C462.953 508 475.834 508.756 487.463 499.699C494.587 494.15 506.053 483.978 505 474C511.184 469.54 508 452.129 508 445L508 358L508 0L1 0z"/>
<path style="fill:#b5c37b; stroke:none;" d="M230.005 52.9128C219.393 53.9264 227.948 65.5509 235.867 64.1381C244.197 62.6519 235.755 52.3635 230.005 52.9128M242.6 53.0471C238.677 55.9534 242.541 67.5768 247.686 64.2485C252.829 60.9214 248.095 48.975 242.6 53.0471z"/>
<path style="fill:#eef1e2; stroke:none;" d="M243 53C238.869 67.5565 256.63 58.0958 243 53M229.152 54.9275C223.22 56.7626 230.524 63.8018 234.678 62.2917C239.978 60.3648 233.292 53.6467 229.152 54.9275z"/>
<path style="fill:#b5c37b; stroke:none;" d="M272.019 55.8619C264.227 59.0309 266.307 68.7149 274.995 65.142C282.946 61.8725 280.247 52.5151 272.019 55.8619z"/>
<path style="fill:#eef1e2; stroke:none;" d="M268 65L280 60C275.01 54.3331 269.285 58.6912 268 65z"/>
<path style="fill:#b5c37b; stroke:none;" d="M203 67C197.932 62.2755 191.427 58.9026 188 67C176.139 62.1131 172.46 79.845 184 76C177.169 94.7472 199.593 85.9163 194 74C198.962 74.2306 201.72 73.6904 204 69C207.785 71.5757 209.944 69.6354 212 66L220 71C217.818 75.1655 217.917 78.1516 223 79L223 80L218 83L217 83C216.954 69.9547 203.623 69.2259 206 82L199.432 80.6574L195.4 87.5856L182 100L181 100L173 92C185.99 95.7325 182.05 81.8796 171 83L170 82C170.301 80.7149 170.793 79.3072 170.763 77.9599C170.369 60.0607 151.445 92.5023 169 84L169 89C162.775 87.2291 159.214 89.5375 159 96L171 97L171 98C164.58 102.954 173.239 109.622 178 102L179 102L166 123L165 123C164.337 114.662 157.371 116.905 152 120L152 116C156.934 115.668 159.076 113.864 162 110L162 109C157.169 104.803 153.446 107.816 151 113L150 113L148 110C150.563 106.635 155.68 103.445 156.338 99.0038C157.484 91.2697 148.068 93.7787 145.232 97.6697C142.627 101.244 144.865 103.744 144.514 107.486C144.107 111.825 141.018 114.988 141 120C136.453 118.122 134.436 118.446 131 122L131 123C134.818 127.537 143.054 132.918 145 124C151.646 126.103 154.924 128.395 162 126C158.033 137.993 145.948 146.204 136 153L149 132C141.686 130.389 135.615 138.912 133 145L132 145C129.819 139.043 126.191 132.292 120 130L120 127C125.382 124.836 124 118.99 124 114L139 116L138 108C151.403 103.551 128.738 88.3707 131.474 101.694C131.771 103.139 132.506 104.615 133 106C127.37 105.167 123.469 107.072 123 113C112.502 107.472 113.654 123.184 119 128C114.719 128.681 110.2 127.253 106.005 128.318C101.74 129.401 98.0512 135.132 103.149 137.954C108.42 140.871 114.751 135.197 117 131C131.567 150.4 120.87 164.085 115.495 185C113.61 192.334 115 201.449 115 209L114 209L115 182L106 192L100 167L98 167L97 184L89 184L89 187C95.4725 191.049 104.251 198.059 105.947 206C107.351 212.576 105.774 219.306 107.831 226C110.886 235.943 117.322 246.321 115 257C106.837 250.425 111.768 243.359 108.397 235.285C105.306 227.885 98.3293 221.921 95 214L93 214C89.3179 226.457 100.506 230.292 102 241C94.394 236.436 87.6908 234.114 83 226C76.5602 228.16 81.7105 235.486 85.1296 238.671C88.0943 241.431 92.2611 242.586 95.0108 245.557C99.0053 249.874 99.2572 255.832 101.513 260.961C105.473 269.963 117.446 279.165 114.682 289.985C112.176 299.796 96.5247 299.853 93 310L115 306C110.504 315.818 97.2026 328.472 113 336L129 304C141.819 314.027 122.06 329.266 118.108 338.285C115.147 345.042 122.32 344.47 126 342C124.885 348.007 124.448 352.698 131 355C133.554 346.442 133.001 337.093 139.188 330.001C141.822 326.982 152.01 319.213 151.214 329.005C150.431 338.629 131.73 350.266 136.657 361.717C139.577 368.504 144.728 356.504 145 354L146 354C146 360.504 144.014 368.915 151 372C156.874 360.36 148.329 340.819 164 336C164 343.301 165.256 351.931 163.275 359C161.926 363.812 155.87 370.032 156.462 374.89C157.101 380.128 162.451 377.27 164.522 374.938C168.874 370.034 171.3 363.228 173 357C184.365 367.178 170.846 370.852 172.448 381.941C173.952 392.361 182.299 377.272 183 374C191.028 378.412 185.232 390.365 195 393C197.752 383.691 189.94 370.371 193.63 362.749C197.497 354.763 209.435 369.099 209.443 373.997C209.45 378.492 193.472 393.859 204.09 396.369C209.861 397.733 211.572 387.523 214.532 384.21C218.076 380.244 223.577 378.737 228 376C230.508 381.303 234.433 385.763 236.957 391.039C238.258 393.76 238.149 398.124 240.024 400.393C242.329 403.182 246.522 401.12 246.748 397.891C247.618 385.448 234.114 373.285 232 361C239.857 364.889 255.179 371.416 259.405 379.094C261.979 383.77 260.458 398.759 263.588 400.914C267.362 403.511 269.903 396.45 270.471 394C272.381 385.753 268.842 379.016 265 372L275 374L275 386C279.377 384.73 280.663 382.454 281 378C289.275 382.721 284.231 388.927 287.742 395.677C291.655 403.2 293.998 389.256 294 387C301.498 389.561 305.819 392.518 314 391C305.864 377.292 286.421 379.297 282 361C295.849 358.143 306.04 361.31 318 368.811C321.984 371.309 330.183 381.177 334.891 380.538C341.383 379.657 333.623 370.883 332 369C350.416 368.988 383.417 358.365 390 339L389 339C373.956 353.634 344.995 364.174 324 359.61C313.871 357.408 305.492 350.335 295 348.375C288.762 347.209 282.951 350.164 277.04 349.512C271.997 348.956 267.857 342.678 263 340.802C252.997 336.94 241.76 338.121 232 333.779C212.173 324.96 202.71 307.003 179 307L179 305L205 311C203.321 302.741 194.759 299.092 188 295.35C172.029 286.509 149.74 283.899 137 270L142 268L143 268C148.415 276.279 162.587 286.416 173 284C167.754 278.484 161.023 274.629 156.286 268.535C145.604 254.792 139.48 232.7 146.515 216C151.463 204.252 161.736 200.746 172 194.907C175.756 192.77 178.919 189.056 183 187.6C189.873 185.148 197.927 186.436 205 183.557C215.005 179.485 224.522 171.333 236 172.119C245.594 172.776 251.835 178.39 258 185L259 185C261.728 179.304 257.96 176.058 254 172C258.498 170.068 262.83 167.295 262 162L250 168.438L226 168L229 159C224.16 161.723 221.079 167.146 216.7 170.659C207.573 177.981 196.537 180.999 185 181C188.231 168.912 213.988 170.689 210 156L189 168C187.622 159.611 192.773 156.047 196 149L186 154C185.993 152.388 186.162 150.605 185.75 149.028C183.326 139.758 171.675 150.216 180 152L180 153C176.246 152.229 171.894 150.06 168.062 151.604C160.311 154.727 168.812 161.001 173 162L173 163C168.79 164.104 160.018 171.283 168.11 174.214C178.228 177.879 180.561 160.17 181 154L186 154C181.636 165.707 182.864 175.35 172.449 184.164C160.358 194.397 139.913 195.967 136 214C127.737 209.608 125.856 198.261 128.33 190C133.125 173.993 143.324 162.622 157.001 153.156C175.588 140.291 196.004 141.743 217 138.791C223.887 137.822 229.907 133.331 237 133.456C244.609 133.59 251.562 137.101 259 136.981C266.394 136.861 272.54 132.129 280 132.005C288.778 131.858 297.953 137.481 306 136C301.637 127.148 289.503 127.031 281 125L304 120L304 119L300 117C303.819 104.821 288.163 97.2168 288 111L278 104L293 99.7053L310 104L310 105C304.028 105.932 299.764 117.361 306.965 116.534C310.721 116.102 312.723 110.745 316 109C316.581 112.49 317.44 113.547 321 113L320 107L345 113.61L373.91 121.229L398 141C392.31 126.184 376.851 112.462 361 110L361 109L366 104L353 95C364.248 79.3477 336.918 88.9676 350 97C348.921 104.546 356.451 103.999 362 104L362 105C355.425 107.022 346.591 111.502 342 104L346 103C341.035 97.9499 334.278 102.069 328 101.946C317.7 101.744 308.905 96.0135 299 95L306 83L284 96L283 86L294 86C296.083 70.1424 281.73 82.1305 275.96 83.142C270.402 84.1163 263.682 83 258 83L255 74L259 74C262.923 86.9241 279.375 71.1154 267.985 70.0586C266.015 69.8759 263.976 70.0002 262 70C262.955 66.4832 259.792 55.7519 255.028 61.608C252.938 64.1765 254 69.8922 254 73L253 73C250.015 68.7415 245.733 69.1605 241 70C241.553 77.2691 247.333 79.9109 254 78L233 94.304L207 120.856L198 121L198 120C205.556 116.08 219.956 103.372 224 96L215 97L211 90C209.661 106.268 194.542 117.204 179 118C185.936 111.688 197.943 109.172 200 99L186 105L186 104C190.27 101.075 197.164 94.1643 198 89L209 91L209 86C213.07 86.3062 216.124 89.4294 220.039 89.4236C227.869 89.412 232.486 82.6842 225 78L225 77C228.139 72.7839 225.648 70.3622 221 70L221 69C229.656 64.1497 220.004 55.9735 215 65C212.886 54.1044 203.708 56.4586 203 67M288 66C292.855 65.9828 295.549 65.5844 299 62C292.405 51.8607 286.489 59.028 282.12 65.2153C280.198 67.9381 275.619 69.6807 276.792 73.8519C278.912 81.3882 289.129 72.1434 288 66z"/>
<path style="fill:#eef1e2; stroke:none;" d="M206 69C211 66.6405 212.823 63.45 213 58C206.694 58.7192 203.843 62.9633 206 69M288.323 58.7462C283.555 61.0888 289.881 66.2867 293.663 63.8063C298.172 60.8489 291.677 57.0976 288.323 58.7462M256 72C260.769 69.2157 261.293 65.8557 259 61C254.513 63.474 254.654 67.4342 256 72M217 70L224 63C218.344 61.8372 215.841 64.4286 217 70M200 73C199.792 55.3999 182.009 69.5166 200 73z"/>
<path style="fill:#b5c37b; stroke:none;" d="M308 75C311.928 82.9865 316.814 80.1519 323 76C322.256 83.7635 332.676 87.904 338.396 82.2577C343.425 77.2937 335.383 72.8215 331.002 73.1474C328.595 73.3264 326.283 74.2875 324 75C327.494 62.7241 312.984 66.2523 310 75C309.367 73.0166 309.007 70.9897 308.4 69C306.736 63.5405 300.086 60.7943 298.323 68.0193C296.74 74.5005 303.191 81.9831 308 75z"/>
<path style="fill:#eef1e2; stroke:none;" d="M305 77C310.018 60.0222 292.638 69.4494 305 77M178 75C183.047 74.3178 185.422 72.2157 185 67C180.184 67.9832 178.371 70.1215 178 75z"/>
<path style="fill:#8da23c; stroke:none;" d="M188 67L184 76L193 72L188 67z"/>
<path style="fill:#b5c37b; stroke:none;" d="M240 68C238.375 67.7131 236.643 67.2488 234.976 67.3974C220.106 68.7225 238.732 84.3363 240 68z"/>
<path style="fill:#eef1e2; stroke:none;" d="M278 75C282.917 74.629 285.632 72.8149 287 68C281.774 68.1697 278.847 69.5788 278 75M317.019 68.7469C311.614 70.8146 311.201 79.7912 317.975 77.1227C323.851 74.8081 324.862 65.7461 317.019 68.7469M230 73C234.15 74.0031 236.669 73.2122 238 69C234.122 69.1254 231.928 69.5016 230 73M242 71C243.501 75.7679 247.355 76.5913 252 77C250.795 71.2226 247.315 71.0188 242 71z"/>
<path style="fill:#8da23c; stroke:none;" d="M261 71L262 72L261 71z"/>
<path style="fill:#eef1e2; stroke:none;" d="M272 75C268.493 64.4344 257.501 79.9479 267.96 76.6628C269.311 76.2384 270.692 75.5319 272 75M219 77C222.828 76.5694 224.81 75.7712 226 72C222.172 72.4306 220.19 73.2288 219 77M209.513 74.0864C205.642 76.5704 208.812 86.313 213.412 82.8017C216.673 80.3127 213.91 71.2649 209.513 74.0864M165.529 75.0864C162.697 76.8879 162.61 84.8374 166.779 82.1682C169.787 80.2426 169.797 72.3714 165.529 75.0864M186 87C191.356 84.153 194.341 79.952 192 74C185.336 76.0282 183.435 80.6274 186 87M325 76C327.753 93.1309 345.696 73.462 331.005 74.7832C329.01 74.9625 326.981 75.6701 325 76M255 79L242 90L256 87L257 79L255 79M284.89 80.0131C282.126 82.7765 289.021 85.8785 291.338 83.9614C294.709 81.1726 287.429 77.4757 284.89 80.0131z"/>
<path style="fill:#b5c37b; stroke:none;" d="M160 89C159.35 69.4295 136.43 94.2565 153.996 90.544C156.024 90.1155 157.967 89.4174 160 89z"/>
<path style="fill:#eef1e2; stroke:none;" d="M218 88L229 85C226.571 77.681 218.92 82.1057 218 88M208 86C206.96 85.2428 205.822 84.2115 204.673 83.6088C194.912 78.4878 202.321 96.1883 208 86M158 88L158 84C147.757 82.1899 146.423 91.0561 158 88z"/>
<path style="fill:#8da23c; stroke:none;" d="M280 83L283 86L280 83z"/>
<path style="fill:#b5c37b; stroke:none;" d="M311.167 84.0278C304.097 88.4242 318.713 99.7144 324.682 95.8171C333.028 90.3681 318.032 79.7594 311.167 84.0278z"/>
<path style="fill:#eef1e2; stroke:none;" d="M171 84C172.971 96.622 185.797 84.9937 171 84M258 84L258 85L272 85L258 84M313.617 85.0432C308.229 88.9337 319.109 97.374 323.551 94.7268C329.432 91.2216 318.437 81.562 313.617 85.0432z"/>
<path style="fill:#b5c37b; stroke:none;" d="M342 98C342.632 96.6279 343.361 95.5052 343.45 93.9553C344.361 78.0027 326.539 92.6136 342 98z"/>
<path style="fill:#8da23c; stroke:none;" d="M232 106L255 93L253 100C260.959 100 276.348 102.819 282 96C275.409 96.2422 275.02 91.5252 275 86C260.579 86.0016 236.381 89.2514 232 106z"/>
<path style="fill:#eef1e2; stroke:none;" d="M276 86C276.188 101.929 288.555 87.9853 276 86M338 86C336.943 90.5021 336.828 93.4407 341 96C342.297 91.5627 342.109 88.5207 338 86M348 95C360.14 91.508 348.452 81.0846 348 95M297 89C284.863 102.147 268.277 101 252 101L252 97L228 109L239 95L239 94C225.703 95.9296 215.183 117.424 205 125.521C193.095 134.987 176.522 135.006 163 141C166.892 124.675 185.794 127.813 198 125L198 124L188 124L201.96 115.725L218 100L218 99L213 96L212 96C204.67 111.681 191.868 118.943 175 121L198 101L185 106L195 91C184.187 94.4745 180.352 105.547 174.116 113.999C161.97 130.461 150.958 145.102 134 157L133 156L141 138C132.47 144.221 134.214 144.927 126 139C126.349 143.006 128.04 146.965 127.66 151C126.337 165.029 117.425 177.848 116.104 192C114.609 208.02 122.43 216.361 128.88 230C138.751 250.876 139.59 276.128 167 282C160.458 270.69 150.028 264.31 145.24 251C134.076 219.968 153.494 198.727 181 186.938C187.407 184.191 195.27 184.602 202 183L202 182C196.305 182 174.131 183.27 188.076 173.134C189.648 171.991 191.404 171.109 193 170C186.78 167.108 187.001 163.33 187 157L186 157C185.903 192.151 146.323 188.023 136 216C110.046 201.89 136.562 168.279 150.039 156.906C170.137 139.944 190.811 141.192 215 137.791C222.535 136.731 229.369 131.641 237 131.275C244.887 130.896 252.237 136.536 260 135.855C268.243 135.131 276.805 129.896 285 128L285 127L278 127C280.814 122.008 285.797 121.297 291 120L291 119C277.456 119.039 272.754 129.543 261 132.701C253.577 134.696 242.046 127.688 234 127.639C224.909 127.584 215.979 134 206 134C210.109 125.189 221.037 115.026 231 114C228.216 120.378 234.205 120.415 239 119C237.135 115.3 235.089 114.308 231 114C238.366 105.999 257.776 102.724 268 105.992C274.561 108.09 278.777 112.786 286 113L286 112L275 104L294 98.2091L315.285 105.951L331 106.133L345 111C339.081 100.612 331.715 105.128 322 103.331C313.216 101.706 305.391 97.8387 297 95L299 89L297 89M160 91C161.731 96.4797 166.105 95.8947 171 95C168.295 90.3661 165.033 89.8471 160 91M239 93L242 91L239 93M253 94L253 97L254 97L253 94M147 106C148.406 105.518 149.754 105.236 150.936 104.258C161.342 95.6535 141.151 93.0486 147 106M132 98C136.086 112.505 145.181 96.3157 132 98M171 105L179 98C173.334 96.4922 169.373 98.9481 171 105M351 99L360 103C359.11 97.6693 355.619 97.9159 351 99M341 102L341 103L344 103L341 102M291.372 105.082C286.949 107.857 294.75 114.913 298.342 111.954C301.902 109.023 294.801 102.93 291.372 105.082z"/>
<path style="fill:#8da23c; stroke:none;" d="M134 106L134 107L138 108L138 107L134 106M230.333 106.667L230.667 107.333L230.333 106.667z"/>
<path style="fill:#eef1e2; stroke:none;" d="M308 116L311 106C305.083 106.957 302.255 112.462 308 116M124 113L136 115C135.734 106.989 125.495 104.311 124 113z"/>
<path style="fill:#8da23c; stroke:none;" d="M235 112L235 113C243.009 116.779 242.338 121.626 238 128L250 128L250 127L247 119C239.277 110.661 254.583 108.901 260 111L256 117L256 120C261.99 124.581 260.223 128.765 253 129L253 130C264.129 133.435 269.07 125.189 278.004 120.247C283.132 117.41 290.222 116.778 296 116L289 111C281.538 118.044 274.793 108.682 267 107.264C256.011 105.264 245.195 108.33 235 112z"/>
<path style="fill:#eef1e2; stroke:none;" d="M155 114L160 109C155.948 108.407 154.407 109.948 155 114M317 108L317 111L318 111L317 108z"/>
<path style="fill:#b5c37b; stroke:none;" d="M227 109L228 110L227 109z"/>
<path style="fill:#eef1e2; stroke:none;" d="M347 111L347 113C363.107 113 376.657 118.032 387 131C388.936 121.345 364.976 110.215 357 109.6C353.743 109.348 350.303 110.831 347 111M246 117C251.086 118.384 255.976 117.174 258 112C252.265 109.359 247.697 110.705 246 117M145 123C159.188 118.519 139.346 105.098 142.844 117.976C143.309 119.689 144.284 121.383 145 123M123 124C122.999 122.347 123.094 120.639 122.941 118.991C121.806 106.752 108.324 123.518 123 124z"/>
<path style="fill:#8da23c; stroke:none;" d="M207 133C218.85 132.967 227.582 127.863 238 123L238 122C233.249 121.944 230.249 121.459 228 117C219.077 117.599 211.875 126.08 207 133z"/>
<path style="fill:#eef1e2; stroke:none;" d="M152 122C155.675 127.986 162.897 125.518 164 119L152 122z"/>
<path style="fill:#b5c37b; stroke:none;" d="M306 118L305 123C308.155 125.052 311.871 127.671 315.866 126.551C320.307 125.306 319.558 119.947 315.67 118.514C312.778 117.448 309.033 118 306 118z"/>
<path style="fill:#eef1e2; stroke:none;" d="M307 123C308.296 123.472 309.679 124.11 311.041 124.392C321.529 126.564 312.222 113.531 307 123M134 120C134.44 125.81 137.417 128.801 143 126L134 120M248 122C252.104 134.787 265.277 121.317 253.021 121.149C251.297 121.125 249.657 121.607 248 122z"/>
<path style="fill:#8da23c; stroke:none;" d="M142 122L143 123L142 122M191 122L191 123L196 123L191 122z"/>
<path style="fill:#eef1e2; stroke:none;" d="M201.667 122.333L202.333 122.667L201.667 122.333M240 122L241 123L240 122z"/>
<path style="fill:#8da23c; stroke:none;" d="M204 123L201 125L201 126L204 123M163.333 124.667L163.667 125.333L163.333 124.667z"/>
<path style="fill:#eef1e2; stroke:none;" d="M237 124L238 125L237 124z"/>
<path style="fill:#8da23c; stroke:none;" d="M199 126C186.532 129.72 173.635 126.003 165 138L192 130.889L199 126z"/>
<path style="fill:#b5c37b; stroke:none;" d="M319 137L318 142C314.412 139.634 310.726 137.812 308 142C303.041 139.952 292.101 143.235 297.046 150.527C301.488 157.077 306.614 146.552 307 143L308 143C309.988 149.973 319.274 153.338 320 144C332.908 149.249 334.512 137.569 322 136C320.714 119.004 301.496 135.798 313.98 136.941C315.633 137.093 317.343 136.999 319 137z"/>
<path style="fill:#eef1e2; stroke:none;" d="M102 136C103.355 136.263 104.643 136.658 106.045 136.517C119.858 135.126 104.887 122.356 102 136M287 129L287 130L295 131L295 129L287 129M311 135C315.424 136.038 318.642 136.276 321 132C316.453 129.828 312.632 129.626 311 135M296 131L303 135L296 131M389 131L389 133L391 133L389 131M145 132L146 133L145 132M392 134L393 135L392 134M124 135L126 138L124 135M321 139C322.548 144.115 326.318 144.867 331 143C328.322 138.986 325.702 138.096 321 139z"/>
<path style="fill:#b5c37b; stroke:none;" d="M227 151C226.187 144.943 216.518 138.984 216.282 148.019C216.108 154.656 226.219 160.909 229 153C245.219 159.681 242.092 133.057 232.498 143.282C230.296 145.63 229.313 148.694 227 151z"/>
<path style="fill:#eef1e2; stroke:none;" d="M309 142C315.065 155.979 321.66 138.949 309 142M233 153C248.571 148.39 228.814 135.155 233 153M298 151C303.555 150.557 304.782 147.206 304 142C299.306 143.394 298.256 146.326 298 151z"/>
<path style="fill:#b5c37b; stroke:none;" d="M206.004 143.762C199.275 145.476 195.266 157.296 204.965 155.018C212.642 153.214 215.7 141.291 206.004 143.762M255.344 144.086C249.057 147.363 254.325 161.011 260.721 158.342C266.296 156.016 262.218 140.505 255.344 144.086z"/>
<path style="fill:#eef1e2; stroke:none;" d="M219.593 145.086C216 147.588 220.333 156.308 224.4 153.839C228.222 151.518 223.62 142.282 219.593 145.086M206.039 145.711C202.031 146.705 199.25 154.222 205.055 153.199C210.307 152.273 212.995 143.987 206.039 145.711M262 157C261.994 155.344 262.091 153.623 261.867 151.976C260.004 138.287 246.824 154.562 262 157z"/>
<path style="fill:#b5c37b; stroke:none;" d="M269 160C262.731 168.977 284.584 177.529 281 161C286.081 161.431 290.217 155.818 283.812 153.747C279.024 152.199 275.538 157.077 280 160L280 161L271 159C274.866 154.588 277.817 152.188 278 146C269.095 144.421 258.276 153.577 269 160M93.1443 147.161C86.4509 150.129 92.2013 165.1 98.6829 161.712C104.224 158.816 99.9808 144.13 93.1443 147.161M107 162C103.053 167.741 109.42 171.608 114.945 169.061C123.271 165.223 118.71 157.751 111 159C111.664 157.367 112.544 155.681 113.005 153.975C117.467 137.459 89.1786 155.448 107 162z"/>
<path style="fill:#eef1e2; stroke:none;" d="M268 158C269.361 157.206 270.769 156.525 271.936 155.437C282.372 145.709 262.746 144.851 268 158M104 159C107.379 158.108 116.209 151.513 109.578 148.176C103.923 145.33 103.213 156.108 104 159M178 147L184 152L185 151L178 147M94.3133 149.176C89.8937 149.833 92.3089 160.233 96.9066 159.744C102.38 159.162 99.5513 148.398 94.3133 149.176M179 155C177.331 154.375 175.746 153.76 173.975 153.463C161.588 151.387 172.939 167.539 179 155M188 155L189 156L188 155M279 156L279 158L286 158L279 156z"/>
<path style="fill:#b5c37b; stroke:none;" d="M234.758 157.028C228.924 161.984 242.97 168.346 247.392 164.138C253.536 158.292 239.002 153.422 234.758 157.028z"/>
<path style="fill:#eef1e2; stroke:none;" d="M237.647 158.025C233.541 161.497 242.21 165.567 245.377 162.975C249.632 159.495 240.813 155.348 237.647 158.025z"/>
<path style="fill:#8da23c; stroke:none;" d="M109.333 159.667L109.667 160.333L109.333 159.667z"/>
<path style="fill:#eef1e2; stroke:none;" d="M106 165C115.373 175.031 122.048 156.127 110.045 162.045C108.514 162.8 107.314 163.94 106 165M207 161L201 165L201 166C203.97 165.528 207.214 164.415 207 161M268 166L281 168C278.709 161.46 271.658 159.21 268 166z"/>
<path style="fill:#b5c37b; stroke:none;" d="M89 170L89 171C85.7306 171.012 73.4964 173.716 80.5293 178.972C84.4095 181.872 92.0892 179.657 96 178L92 173C101.838 158.85 75.5618 164.856 89 170z"/>
<path style="fill:#eef1e2; stroke:none;" d="M86 164C87.1955 167.939 89.0143 168.889 93 168L86 164M171.971 164.762C166.645 166.24 165.409 174.275 171.985 172.199C176.447 170.791 178.037 163.079 171.971 164.762M196 169L200 168L196 169M222 167L214 175L214 176L242 171L242 170L222 167M253 169L246 172L246 173L258 183L259 183L253 169M99 170L97 186L90 185C96.2145 190.601 103.941 195.844 107.146 204C110.819 213.348 108.859 224.925 112.59 235C114.247 239.473 120.925 252.272 116.394 256.454C113.379 259.236 109.888 254.452 108.855 251.997C106.739 246.966 109.436 241.172 107.397 236.285C104.381 229.06 96.9012 225.289 95 217L93 217C93.4607 225.975 102.576 231.18 103.124 238.873C103.417 242.985 98.9482 240.876 96.9606 240.008C91.6672 237.697 86.902 235.137 84 230L83 230C84.1748 238.784 91.5057 239.322 96.6065 245.13C100.352 249.394 100.45 255.048 102.708 260C106.731 268.823 119.995 280.224 116.092 290.996C112.886 299.845 100.616 300.15 96 308L117 306C112.757 313.638 100.733 325.862 112 333L129 300C144.047 314.648 123.216 329.075 118 342L129 339C127.114 344 124.802 349.586 130 353C132.906 343.258 132.686 334.522 140.015 326.468C143.761 322.35 152.595 319.46 153.187 328.004C153.582 333.708 147.527 337.909 144.569 342C141.069 346.84 138.13 356.119 139 362L145 352L146 352L151 370C152.428 362.638 149.751 352.469 151.832 346.09C155.236 335.651 164.991 331.587 165.91 345C166.712 356.691 162.566 365.181 157 375C166.561 378.152 169.527 361.218 173 355L174 355C182.645 366.468 177.023 370.553 173 383L177 385C177.777 383.291 178.592 381.64 179.464 379.975C187.504 364.619 188.983 384.175 191 391C203.773 385.866 182.43 363.839 196.086 357.921C199.727 356.342 202.865 362.499 205.049 364.576C208.077 367.455 211.573 370.327 210.667 375C209.607 380.464 195.595 394.01 208 395C209.184 388.125 219.589 371.436 228.79 376.747C236.091 380.961 239.259 393.737 242 401L244 401C248.272 385.458 228.235 374 232 358C243.243 367.583 262.817 371.953 264.775 389C265.206 392.757 263.617 396.353 263 400L267 400C268.007 395.135 270.45 389.988 269.2 385C268.36 381.65 263.711 375.931 264.676 372.573C265.738 368.878 271.688 370.635 273.527 372.514C276.243 375.29 274.982 380.464 276 384L281 376C289.775 381.319 287.051 387.52 289 396L294.322 386.594L311 390C306.215 386.032 300.165 383.493 295 379.971C291.254 377.418 285.615 374.679 283.14 370.79C275.216 358.342 290.168 356.644 299 358.518C313.99 361.698 322.773 375.971 336 380L329 367C346.696 364.183 361.407 362.316 377 352L377 351C361.295 354.365 347.775 362.522 331 362.137C319.731 361.878 311.54 353.913 301 351.34C292.614 349.292 284.005 352.474 276.04 350.693C270.611 349.479 266.505 343.666 261 341.715C251.271 338.265 240.439 339.321 231 334.968C219.35 329.596 211.289 318.879 199.996 313.029C185.155 305.342 163.696 309.014 152 295C166.749 299.916 185.379 307.162 201 307C184.391 284.498 143.646 290.288 130 264L138 267C133.459 259.495 127.324 253.297 127 244L131 246C127.095 227.727 112.054 215.406 112 196C98.8882 192.317 102.949 179.411 99 170M92 178C86.9155 165.302 73.9274 179.684 87.9552 178.906C89.4473 178.823 90.574 178.422 92 178z"/>
<path style="fill:#b5c37b; stroke:none;" d="M270.004 175.498C260.2 177.408 264.017 186.42 272.995 184.772C281.912 183.134 278.093 173.921 270.004 175.498z"/>
<path style="fill:#eef1e2; stroke:none;" d="M209 179L213 178L209 179M278 181C272.952 168.444 259.307 187.259 273.955 182.902C275.412 182.469 276.666 181.699 278 181M202 180L202 181L208 179L202 180z"/>
<path style="fill:#b5c37b; stroke:none;" d="M80.4838 185.029C74.9002 188.577 79.8999 194.106 84.8472 190.397C89.7385 186.729 84.9073 182.217 80.4838 185.029M280.577 184.863C274.456 188.269 284.69 196.78 289.562 194.392C296.014 191.23 285.991 181.85 280.577 184.863z"/>
<path style="fill:#eef1e2; stroke:none;" d="M79 191C82.9932 190.364 84.3641 188.993 85 185L79 191z"/>
<path style="fill:#b5c37b; stroke:none;" d="M263 193C265.816 195.331 269.77 199.476 273.812 198.907C280.792 197.923 276.49 189.811 272.87 187.72C265.709 183.582 245.134 190.95 252.183 201.681C257.012 209.033 262.773 197.14 263 193z"/>
<path style="fill:#eef1e2; stroke:none;" d="M280 187C281.768 191.743 285.092 193.467 290 194C289.522 187.718 285.985 185.72 280 187M111 187L111 195L112 195L111 187M263 190C264.204 191.514 265.408 192.991 266.903 194.241C276.19 202.005 277.194 184.946 263 190M255 191L253 202C260.616 201.421 263.969 192.43 255 191z"/>
<path style="fill:#b5c37b; stroke:none;" d="M89 194L90 203L89 204C85.3316 202.463 72.3344 202.443 77.6474 209.725C81.0306 214.362 88.2751 212.877 93 212L93 207C104.451 208.468 98.938 194.112 89 194z"/>
<path style="fill:#eef1e2; stroke:none;" d="M91.6042 196.161C88.0746 198.335 92.8431 206.456 96.2932 203.914C99.8145 201.319 95.3827 193.834 91.6042 196.161M91 211C85.8273 196.347 71.7029 211.146 85.9753 211.735C87.7318 211.808 89.3074 211.389 91 211z"/>
<path style="fill:#b5c37b; stroke:none;" d="M304 239L283 231.553L274.172 228.682L277 220L270 217L270 231C242.926 231.075 213.733 250.243 189 260.152C184.746 261.856 164.636 265.666 164.636 270.924C164.636 274.143 169.792 276.745 172 278.37C179.386 283.809 189.239 286.111 195.961 292.189C201.54 297.234 206.639 310.857 214.04 312.677C220.553 314.279 230.614 310.041 237 308.502C261.653 302.561 283.719 289.688 308 283.159C327.111 278.02 344.084 283.216 363 285.711C377.081 287.568 390.765 288 405 288C416.011 288 417.515 285.208 420.882 275C421.736 272.41 423.883 268.317 421.958 265.738C418.576 261.207 408.567 260.652 404 257L425 260C426.586 253.083 430.48 243.26 427.397 236.214C425.193 231.177 414.59 229.717 410 227.313C394.671 219.286 380.738 201.898 362 204.13C351.865 205.337 340.752 216.201 332 221.33C324.951 225.462 305.418 230.472 304 239z"/>
<path style="fill:#8da23c; stroke:none;" d="M91 205L92 206L91 205z"/>
<path style="fill:#eef1e2; stroke:none;" d="M307 235L307 239L351 248.536L395 252.21L424 259L427 235C404.381 231.612 388.414 205.481 366 205.056C358.013 204.904 352.355 210.838 346 214.807C333.992 222.307 320.701 231.053 307 235z"/>
<path style="fill:#8da23c; stroke:none;" d="M117 213L118 214L117 213M119.333 217.667L119.667 218.333L119.333 217.667z"/>
<path style="fill:#eef1e2; stroke:none;" d="M271 220L271 223L272 223L271 220z"/>
<path style="fill:#8da23c; stroke:none;" d="M122 221L122 224L123 224L122 221M124 224L124 227L125 227L124 224z"/>
<path style="fill:#eef1e2; stroke:none;" d="M81 228L82 229L81 228z"/>
<path style="fill:#8da23c; stroke:none;" d="M127 229L127 233L128 233L127 229z"/>
<path style="fill:#eef1e2; stroke:none;" d="M165 272C175.038 277.719 189.854 284.012 197.96 292.043C202.978 297.016 207.707 309.112 215.004 310.643C223.076 312.336 234.262 307.806 242 305.734C265.692 299.39 287.326 286.558 311 280.594C337.048 274.032 364.816 286.344 391 286.985C403.794 287.299 424.251 287.968 420.578 268.147C419.808 263.993 410.432 261.993 407 260.646C390.735 254.261 372.867 257.339 356 254.385C338.56 251.33 321.776 247.838 305 242.069C293.76 238.203 283.376 231.276 271 231.725C247.6 232.573 226.163 247.456 205 255.797C193.909 260.169 172.833 263.093 165 272z"/>
<path style="fill:#8da23c; stroke:none;" d="M129.333 235.667L129.667 236.333L129.333 235.667M305 240L305 241C337.981 248.136 369.906 256.718 404 257C394.781 250.396 378.898 252.714 368 251.911C346.713 250.343 325.853 241.082 305 240M132 243L132 247L133 247L132 243M130 248C129.615 256.014 135.701 260.995 140 267L141 267C139.329 260.294 135.624 252.094 130 248z"/>
<path style="fill:#b5c37b; stroke:none;" d="M129 263L130 264L129 263z"/>
<path style="fill:#8da23c; stroke:none;" d="M134.667 268.333L135.333 268.667L134.667 268.333z"/>
<path style="fill:#b5c37b; stroke:none;" d="M217 316C224.21 334.372 243.597 332.203 259 336.749C265.692 338.724 271.527 344.238 278.004 345.697C285.173 347.312 292.653 344.698 300 346.901C307.337 349.101 313.868 353.828 321.17 355.826C337.594 360.321 357.313 356.641 372 348.364C387.328 339.726 397.323 324.411 405.529 309.285C407.363 305.906 414.593 295.597 410.392 292.179C406.649 289.134 397.557 291.223 393 290.91C378.381 289.909 362.192 289.842 348 286.135C328.768 281.112 311.252 285.234 293 291.659C267.696 300.566 242.542 308.236 217 316z"/>
<path style="fill:#eef1e2; stroke:none;" d="M219 318L219 319C232.396 332.357 245.316 330.702 262 336.094C267.715 337.941 273.175 343.585 279 344.27C283.361 344.783 287.481 342.693 292 343.465C305.023 345.687 316.01 354.568 329 355.83C367.885 359.608 401.041 329.396 411 293C394.042 293 376.794 292.094 360 289.7C347.485 287.916 335.775 284.459 323 285.039C299.972 286.085 275.551 300.065 254 307.495C242.95 311.305 229.11 312.396 219 318z"/>
<path style="fill:#b5c37b; stroke:none;" d="M149 293L151 295L151 293L149 293z"/>
<path style="fill:#8da23c; stroke:none;" d="M163 301L163 302L167 302L163 301M170 303L170 304L179 305L170 303z"/>
<path style="fill:#b5c37b; stroke:none;" d="M175.148 320.833C171.147 322.296 172.272 326.888 173.178 330C174.719 335.292 176.87 361.373 187.49 357.083C195.538 353.833 205.15 337.222 199.397 329.109C196.507 325.033 190.536 323.779 186 322.539C182.821 321.67 178.448 319.626 175.148 320.833z"/>
<path style="fill:#8da23c; stroke:none;" d="M173 323C174.879 333.919 176.473 351.017 187 357C190.917 350.785 198.305 345.495 199.725 338.001C202.128 325.314 182.187 321.539 173 323z"/>
<path style="fill:#b5c37b; stroke:none;" d="M211 334L205.434 354.91L217 372C231.363 365.821 221.869 339.312 211 334z"/>
<path style="fill:#8da23c; stroke:none;" d="M212 336L206.85 354L217 370C230.433 365.441 218.77 341.915 212 336z"/>
<path style="fill:#b5c37b; stroke:none;" d="M230 342C229.767 357.335 257.372 355.76 267 355C264.895 341.51 240.256 344.47 230 342z"/>
<path style="fill:#8da23c; stroke:none;" d="M232 344C238.395 354.633 254.123 355.019 265 353C259.135 343.411 241.814 345.662 232 344z"/>
<path style="fill:#eef1e2; stroke:none;" d="M378.667 349.333L379.333 349.667L378.667 349.333z"/>
<path style="fill:#b5c37b; stroke:none;" d="M250 361C253.93 368.581 267.607 366.066 275 367C274.277 357.93 257.294 362.355 250 361z"/>
<path style="fill:#8da23c; stroke:none;" d="M264 364L264 365L274 365L264 364z"/>
<path style="fill:#b5c37b; stroke:none;" d="M352 451C334.43 452.316 346.546 423.187 352 435C358.136 434.3 362.041 426.962 354.891 423.728C334.316 414.423 325.762 450.202 342.005 458.682C347.562 461.584 356.66 460.197 359.258 453.91C361.309 448.946 360.563 440.492 353.988 440.153C344.824 439.68 349.936 446.695 352 451M127 446L128 446C128.004 452.339 131.38 466.71 139.231 455.941C143.5 450.086 145.599 440.064 146.741 433C147.331 429.348 144.159 418.191 139.028 424.604C136.252 428.074 136.041 440.467 136 445L135 445C134.274 439.261 133.883 431.176 130.825 426.148C129.431 423.857 125.113 421.713 123.117 424.604C120.773 427.999 123.063 437.537 122 442L120 442C119.211 438.688 119.224 435.301 118.471 432C117.175 426.314 106.364 418.05 107.398 428.019C108.112 434.899 110.711 452.334 115.009 457.681C121.261 465.459 126.549 450.408 127 446M149 423C148.582 428.01 148.998 432.978 149 438L149 448C149 451.158 150.884 466.749 156.972 457.681C159.942 453.258 159.926 429.749 156.972 425.318C155.236 422.713 151.733 423.032 149 423M170 451L170 439L170 432C169.993 428.374 165.556 417.303 161.603 425.318C158.374 431.868 161.472 443.75 160.831 451C160.59 453.723 159.615 456.985 162.322 458.821C165.559 461.016 175.437 460.986 178.682 458.821C181.565 456.897 181.782 451.522 177.852 450.858C175.388 450.442 172.504 450.981 170 451M195 432C191.796 436.767 179.275 451.898 183.032 457.566C187.891 464.896 207.456 461.431 206 451L194 452C196.243 445.475 209.112 432.074 206.214 425.318C204.394 421.075 184.985 421.367 183.752 426.144C182.149 432.352 191.439 431.997 195 432M217 451L217 445C228.14 444.731 228.4 436.04 217 436C218.58 430.794 230.907 430.889 229.248 425.302C227.969 420.993 209.449 421.555 208.407 426.228C207.042 432.357 209.403 440.525 208.914 447C208.684 450.035 207.326 453.835 208.607 456.772C210.834 461.876 225.175 461.347 228.392 457.567C234.499 450.392 220.353 451 217 451M240 441L241 441C243.43 453.786 256.387 468.714 257.91 447C258.283 441.696 260.007 429.858 256.972 425.318C249.842 414.653 249 436.096 249 439C247.529 435.975 246.124 432.905 244.42 430.001C242.404 426.567 233.783 418.134 231.318 426.228C229.282 432.914 229.914 448.849 231.148 455.891C232.814 465.397 239.972 455.193 239.999 450L240 441M262.357 424.028C259.071 426.357 261 435.399 261 439C261 443.895 258.677 452.348 260.607 456.772C263.031 462.327 275.939 460.559 279.891 457.852C286.554 453.288 283.126 446.22 282.154 440C281.549 436.133 284.512 432.977 283.091 429.005C280.815 422.644 267.771 420.191 262.357 424.028M296 451L296 445C305.312 444.152 305.746 436.116 296 436C297.788 430.11 303.19 432.855 305.953 428.571C310.386 421.698 289.627 420.779 287.313 425.318C284.442 430.949 287.344 442.632 286.91 449C286.731 451.638 285.462 455.153 287.042 457.566C289.546 461.391 302.325 461.287 305.396 458.258C311.996 451.747 299.376 451 296 451M318 448L321 448C321.557 452.257 330.867 466.276 332.98 455.956C333.809 451.908 328.232 445.959 327 442C343.129 433.908 324.234 417.053 311.322 423.742C308.534 425.187 309.609 428.505 309.831 431.001C310.457 438.051 306.341 450.786 308.782 456.772C313.068 467.28 317.989 451.955 318 448M371 451L371 445C381.071 444.53 381.343 436.122 371 436L371 431C373.485 430.998 387.442 430.26 382.338 424.589C380.118 422.122 374.944 422.999 372 423C369.383 423.001 364.891 422.251 363.028 424.603C361.532 426.492 362.005 429.764 362 432C361.987 438.407 359.399 452.245 363.028 457.682C365.912 462.005 379.299 460.974 382.377 457.277C387.837 450.72 373.992 451 371 451M394 447L395 447C397.67 452.974 405.407 466.768 410 454C407.436 451.514 403.56 447.264 404.233 443.325C405.317 436.978 411.709 433.071 406.297 426.148C403.691 422.814 399.843 423.008 396 423C393.2 422.994 388.022 422.086 386.028 424.603C382.212 429.421 384.988 444.977 385 451C385.005 453.216 384.521 456.531 386.028 458.393C392.452 466.332 394 449.79 394 447z"/>
<path style="fill:#eef1e2; stroke:none;" d="M109 424C109.395 432.651 112.402 441.53 114.211 450C114.706 452.319 115.229 457.604 118.259 458.079C123.437 458.89 125.858 446.503 127 443L132 459C141.43 455.715 144.026 440.923 144.829 432C145.015 429.94 144.738 422.17 140.584 425.086C135.913 428.367 139.149 442.573 134 448C133.06 440.604 132.921 425.452 124 424C124.212 433.343 125.664 440.308 119 448C118.379 440.136 118.769 425.545 109 424M150 424L150 437L150 446C150 447.611 150.056 462.326 154.977 457.149C156.841 455.188 156 450.453 156 448C156 440.83 159.561 424.745 150 424M180 452C177.181 452.021 172.872 453.032 170.318 451.651C162.151 447.238 174.139 430.109 166.455 425.086C163.605 423.223 162.198 426.813 162.098 429.019C161.854 434.414 159.77 452.283 163.028 456.397C167.173 461.631 179.048 457.969 180 452M197 430C194.919 435.457 181.964 450.488 184.252 455.682C186.416 460.595 205.935 460.504 204 452L192 453C195.39 443.811 205.761 433.88 205 424C200.08 424 191.785 422.392 187.323 424.603C179.512 428.471 195.15 430 197 430M210 425L210.985 448L211.782 456.972L221.998 457.958L229 456L228 452C224.092 452.493 211.994 453.22 217.032 445.317C219.024 442.193 223.04 442.558 225 439C223.379 438.501 221.632 438.26 220.034 437.716C208.443 433.774 227.373 427.758 228 424L210 425M238 437C241.688 440.471 246.498 457.364 251.155 457.364C254.447 457.364 254.817 453.389 255.15 450.999C256.036 444.649 258.34 432.263 255.397 426.323C251.617 418.691 250.989 433.016 251.271 435C251.827 438.916 251.916 442.14 251 446C249.187 442.684 247.35 439.405 245.706 436C244.734 433.986 243.792 431.937 242.663 430.005C241.358 427.772 235.866 420.856 233.692 426.319C231.834 430.989 231.839 449.733 232.72 454.887C233.233 457.887 236.031 458.492 237.57 455.808C239.298 452.795 238.652 449.239 238.285 446C237.946 443.007 238 440.007 238 437M278 441C279.918 437.334 282.707 433.344 281.091 429.044C279.147 423.871 267.935 421.534 263.607 425.028C261.005 427.128 262.838 432.205 262.961 435C263.247 441.551 258.429 456.599 267.019 458.516C277.747 460.91 290.165 448.102 278 441M306 452C302.092 452.493 289.994 453.22 295.032 445.317C297.024 442.193 301.04 442.558 303 439L294 438C294.134 426.692 304.588 432.464 306 424C301.833 424 293.012 422.328 289.603 425.028C285.372 428.379 287.966 444.927 288.001 450C288.016 452.209 287.639 455.417 289.603 456.972C294.646 460.966 305.017 458.164 306 452M312 459C317.425 456.819 316.059 450.069 317 445C321.008 447.002 324.981 458.725 329.678 457.248C333.943 455.908 327.152 447.472 326.782 445.039C325.8 438.578 336.098 432.034 327.772 425.742C324.724 423.439 313.644 422.171 311.603 426.318C308.316 432.998 309.933 452.008 312 459M358 442L350 442C350.426 444.618 353.336 448.349 352.083 450.862C348.99 457.067 342.921 449.792 342.228 446C340.954 439.02 345.976 421.491 353 434C363.209 429.981 352.042 422.552 345 424.318C332.441 427.467 332.127 449.296 341.108 456.196C346.441 460.293 356.277 459.756 357.772 451.96C358.383 448.771 358 445.236 358 442M363 425C364.679 432.053 364.16 439.778 363.985 447C363.921 449.676 362.524 454.053 364.218 456.397C366.184 459.116 380.793 459.454 380.793 455.015C380.793 450.765 371.396 454.515 370.377 448.946C369.331 443.236 377.115 443.305 378 438C360.319 437.424 380.331 428.01 381 424L363 425M386 425C387.865 435.046 384.951 445.1 386.188 454.89C387.257 463.36 391.848 452.759 392.325 450.005C392.68 447.951 393.372 445.981 394 444C396.362 446.882 400.027 457.364 404.136 457.364C410.318 457.364 401.706 446.015 402.324 443.17C403.135 439.438 406.524 437.152 406.718 433.001C407.218 422.286 393.082 422.907 386 425z"/>
<path style="fill:#b5c37b; stroke:none;" d="M268 438C282.678 436.883 269.038 422.572 268.059 432.995C267.904 434.641 268.001 436.349 268 438M318.314 429.047C314.183 431.613 316.136 441.679 321.776 438.762C327.074 436.023 324.084 425.463 318.314 429.047M394 440C409.842 435.663 391.06 421.736 392.768 434.976C392.996 436.743 393.467 438.313 394 440z"/>
<path style="fill:#8da23c; stroke:none;" d="M271.171 430.176C268.527 430.659 269.111 435.611 271.829 435.079C274.422 434.573 273.963 429.666 271.171 430.176M318 438C327.931 436.347 318.052 423.407 318 438M394 438L398 438L398 429C393.613 430.456 394.015 433.85 394 438z"/>
<path style="fill:#b5c37b; stroke:none;" d="M268 454C269.555 453.981 271.32 454.139 272.836 453.682C283.703 450.406 268.071 434.491 267.459 448.979C267.387 450.687 267.724 452.326 268 454z"/>
<path style="fill:#8da23c; stroke:none;" d="M269 453C280.442 452.088 269.056 437.126 269 453z"/>
<path style="fill:#2bd52b; stroke:none;" d="M1 472L2 473L1 472z"/>
<path style="fill:#eef1e2; stroke:none;" d="M2 473L4 475L4 473L2 473M506 473L507 474L506 473z"/>
<path style="fill:#b5c37b; stroke:none;" d="M505 474L506 475L505 474z"/>
<path style="fill:#eef1e2; stroke:none;" d="M505 477L506 478L505 477z"/>
<path style="fill:#b5c37b; stroke:none;" d="M504 479L505 480L504 479z"/>
<path style="fill:#eef1e2; stroke:none;" d="M6 482L7 483L6 482z"/>
<path style="fill:#b5c37b; stroke:none;" d="M501 484L502 485L501 484z"/>
<path style="fill:#eef1e2; stroke:none;" d="M502 484L503 485L502 484M497 490L498 491L497 490M12 491L13 492L12 491M13 492L14 493L13 492M495 492L496 493L495 492M14 493L15 494L14 493z"/>
<path style="fill:#b5c37b; stroke:none;" d="M15.3333 493.667L15.6667 494.333L15.3333 493.667M494 493L495 494L494 493z"/>
<path style="fill:#eef1e2; stroke:none;" d="M494 494L495 495L494 494M492 495L493 496L492 495M17 496L18 497L17 496z"/>
<path style="fill:#b5c37b; stroke:none;" d="M18 496L19 497L18 496z"/>
<path style="fill:#eef1e2; stroke:none;" d="M491 496L492 497L491 496z"/>
<path style="fill:#2bd52b; stroke:none;" d="M18 497L19 498L18 497z"/>
<path style="fill:#eef1e2; stroke:none;" d="M490 497L491 498L490 497M487 499L488 500L487 499M22 500L23 501L22 500z"/>
<path style="fill:#b5c37b; stroke:none;" d="M25 501L26 502L25 501M484 501L485 502L484 501z"/>
<path style="fill:#eef1e2; stroke:none;" d="M484 502L485 503L484 502M478 505L479 506L478 505M36 506L37 507L36 506z"/>
<path style="fill:#b5c37b; stroke:none;" d="M37 506L38 507L37 506z"/>
<path style="fill:#eef1e2; stroke:none;" d="M472.667 506.333L473.333 506.667L472.667 506.333z"/>
</svg>
